<svg xmlns="http://www.w3.org/2000/svg" viewBox="0 0 1200 720" preserveAspectRatio="xMidYMid slice">
  <defs>
    <linearGradient id="th-bg" x1="0" x2="1" y1="0" y2="1">
      <stop offset="0%" stop-color="#0f172a" />
      <stop offset="60%" stop-color="#1e293b" />
      <stop offset="100%" stop-color="#111827" />
    </linearGradient>
    <linearGradient id="th-line" x1="0" x2="1" y1="0" y2="0">
      <stop offset="0%" stop-color="#f97316" stop-opacity="0" />
      <stop offset="50%" stop-color="#f97316" stop-opacity="0.7" />
      <stop offset="100%" stop-color="#f97316" stop-opacity="0" />
    </linearGradient>
    <radialGradient id="th-pulse" cx="0.75" cy="0.25" r="0.6">
      <stop offset="0%" stop-color="#38bdf8" stop-opacity="0.55" />
      <stop offset="100%" stop-color="#38bdf8" stop-opacity="0" />
    </radialGradient>
  </defs>
  <rect width="1200" height="720" fill="url(#th-bg)" />
  <rect width="1200" height="720" fill="url(#th-pulse)" opacity="0.7" />
  <g fill="#0f172a" opacity="0.45">
    <rect x="160" y="160" width="200" height="120" rx="24" />
    <rect x="460" y="220" width="220" height="140" rx="28" />
    <rect x="800" y="180" width="180" height="120" rx="26" />
  </g>
  <g fill="none" stroke="url(#th-line)" stroke-width="6">
    <path d="M140 500 L300 420 L460 520 L620 400 L780 460 L940 380" />
    <path d="M140 560 L300 480 L460 580 L620 460 L780 520 L940 440" opacity="0.6" />
    <path d="M140 620 L300 540 L460 640 L620 520 L780 580 L940 500" opacity="0.4" />
  </g>
  <g fill="#fcd34d" opacity="0.45">
    <circle cx="300" cy="420" r="24" />
    <circle cx="620" cy="400" r="28" />
    <circle cx="780" cy="520" r="20" />
  </g>
</svg>
