<svg xmlns="http://www.w3.org/2000/svg" viewBox="0 0 1200 720" preserveAspectRatio="xMidYMid slice">
  <defs>
    <linearGradient id="sg-bg" x1="0" x2="1" y1="0" y2="1">
      <stop offset="0%" stop-color="#0b1120" />
      <stop offset="60%" stop-color="#111827" />
      <stop offset="100%" stop-color="#1f2937" />
    </linearGradient>
    <linearGradient id="sg-line" x1="0" x2="1" y1="0" y2="0">
      <stop offset="0%" stop-color="#38bdf8" stop-opacity="0" />
      <stop offset="50%" stop-color="#38bdf8" stop-opacity="0.75" />
      <stop offset="100%" stop-color="#38bdf8" stop-opacity="0" />
    </linearGradient>
  </defs>
  <rect width="1200" height="720" fill="url(#sg-bg)" />
  <g fill="#1d4ed8" opacity="0.45">
    <circle cx="280" cy="200" r="150" />
    <circle cx="960" cy="540" r="230" />
  </g>
  <g fill="#0ea5e9" opacity="0.28">
    <circle cx="600" cy="360" r="120" />
  </g>
  <g fill="none" stroke="url(#sg-line)" stroke-width="6">
    <path d="M160 420 L360 380 L560 460 L760 400 L960 460" />
    <path d="M160 500 L360 460 L560 540 L760 480 L960 540" opacity="0.6" />
    <path d="M160 580 L360 540 L560 620 L760 560 L960 620" opacity="0.4" />
  </g>
  <g fill="#e0f2fe" opacity="0.45">
    <rect x="260" y="280" width="240" height="140" rx="28" />
    <rect x="520" y="220" width="180" height="120" rx="24" opacity="0.6" />
    <rect x="780" y="300" width="200" height="130" rx="30" opacity="0.5" />
  </g>
</svg>
